<svg width="302" height="365" viewBox="0 0 302 365" fill="none" xmlns="http://www.w3.org/2000/svg">
<path d="M44.7057 122.502C44.4304 122.227 43.9841 122.227 43.7088 122.502L39.2229 126.988C38.9476 127.264 38.9476 127.71 39.2229 127.985C39.4982 128.261 39.9445 128.261 40.2198 127.985L44.2073 123.998L48.1948 127.985C48.4701 128.261 48.9164 128.261 49.1917 127.985C49.467 127.71 49.467 127.264 49.1917 126.988L44.7057 122.502ZM43.5024 123.001L43.5024 163.18L44.9122 163.18L44.9122 123.001L43.5024 123.001Z" fill="black"/>
<path d="M234.032 257.431C234.307 257.706 234.753 257.706 235.029 257.431L239.515 252.945C239.79 252.669 239.79 252.223 239.515 251.948C239.239 251.673 238.793 251.673 238.518 251.948L234.53 255.935L230.543 251.948C230.267 251.673 229.821 251.673 229.546 251.948C229.271 252.223 229.271 252.669 229.546 252.945L234.032 257.431ZM233.825 216.753L233.825 256.932L235.235 256.932L235.235 216.753L233.825 216.753Z" fill="black"/>
<path d="M235.644 68.4125L236.348 68.4125L236.348 67.7074L235.643 67.7076L235.644 68.4125ZM235.145 123.19C235.42 123.465 235.867 123.465 236.142 123.19L240.628 118.704C240.903 118.428 240.903 117.982 240.628 117.707C240.353 117.431 239.906 117.431 239.631 117.707L235.644 121.694L231.656 117.707C231.381 117.431 230.934 117.431 230.659 117.707C230.384 117.982 230.384 118.428 230.659 118.704L235.145 123.19ZM234.939 68.4125L234.939 122.691L236.348 122.691L236.348 68.4125L234.939 68.4125ZM94.9878 69.1585L165.316 69.1379L165.315 67.7281L94.9874 67.7487L94.9878 69.1585ZM165.316 69.1379L235.644 69.1174L235.643 67.7076L165.315 67.7281L165.316 69.1379Z" fill="black"/>
<path d="M240.864 354.484C238.105 358.91 231.661 358.91 228.902 354.484L183.915 282.337C180.988 277.642 184.364 271.559 189.897 271.559L279.869 271.559C285.402 271.559 288.778 277.642 285.851 282.337L240.864 354.484Z" fill="#FE6B36"/>
<path d="M225.201 292.753C225.145 292.558 225.066 292.386 224.965 292.236C224.863 292.084 224.739 291.956 224.592 291.852C224.448 291.745 224.283 291.663 224.096 291.607C223.912 291.551 223.707 291.523 223.483 291.523C223.064 291.523 222.695 291.627 222.378 291.836C222.062 292.044 221.817 292.347 221.641 292.745C221.464 293.14 221.376 293.623 221.376 294.195C221.376 294.766 221.463 295.252 221.637 295.653C221.81 296.053 222.056 296.359 222.374 296.57C222.691 296.778 223.066 296.882 223.499 296.882C223.892 296.882 224.227 296.813 224.504 296.674C224.785 296.532 224.998 296.333 225.145 296.077C225.295 295.821 225.369 295.518 225.369 295.168L225.722 295.22H223.607V293.914H227.04V294.948C227.04 295.669 226.887 296.288 226.583 296.806C226.279 297.321 225.859 297.719 225.325 298C224.791 298.277 224.18 298.416 223.491 298.416C222.722 298.416 222.046 298.247 221.464 297.907C220.882 297.566 220.428 297.081 220.103 296.454C219.78 295.823 219.618 295.076 219.618 294.211C219.618 293.546 219.714 292.953 219.906 292.432C220.101 291.909 220.374 291.466 220.723 291.103C221.073 290.74 221.48 290.463 221.945 290.274C222.41 290.084 222.913 289.989 223.455 289.989C223.92 289.989 224.352 290.057 224.753 290.194C225.153 290.327 225.508 290.517 225.818 290.762C226.13 291.008 226.385 291.3 226.583 291.639C226.781 291.976 226.907 292.347 226.963 292.753H225.201ZM231.09 298.424C230.468 298.424 229.93 298.292 229.476 298.028C229.024 297.761 228.676 297.389 228.43 296.914C228.185 296.436 228.062 295.882 228.062 295.252C228.062 294.617 228.185 294.061 228.43 293.586C228.676 293.108 229.024 292.737 229.476 292.473C229.93 292.205 230.468 292.072 231.09 292.072C231.712 292.072 232.249 292.205 232.7 292.473C233.154 292.737 233.503 293.108 233.749 293.586C233.995 294.061 234.118 294.617 234.118 295.252C234.118 295.882 233.995 296.436 233.749 296.914C233.503 297.389 233.154 297.761 232.7 298.028C232.249 298.292 231.712 298.424 231.09 298.424ZM231.098 297.102C231.381 297.102 231.617 297.022 231.807 296.862C231.996 296.699 232.139 296.478 232.235 296.197C232.334 295.917 232.383 295.598 232.383 295.24C232.383 294.882 232.334 294.563 232.235 294.283C232.139 294.002 231.996 293.781 231.807 293.618C231.617 293.455 231.381 293.374 231.098 293.374C230.812 293.374 230.572 293.455 230.377 293.618C230.185 293.781 230.039 294.002 229.94 294.283C229.844 294.563 229.796 294.882 229.796 295.24C229.796 295.598 229.844 295.917 229.94 296.197C230.039 296.478 230.185 296.699 230.377 296.862C230.572 297.022 230.812 297.102 231.098 297.102ZM237.557 291.531V290.101H244.294V291.531H241.782V298.304H240.068V291.531H237.557ZM247.258 298.424C246.636 298.424 246.098 298.292 245.644 298.028C245.193 297.761 244.845 297.389 244.599 296.914C244.353 296.436 244.23 295.882 244.23 295.252C244.23 294.617 244.353 294.061 244.599 293.586C244.845 293.108 245.193 292.737 245.644 292.473C246.098 292.205 246.636 292.072 247.258 292.072C247.88 292.072 248.417 292.205 248.868 292.473C249.322 292.737 249.672 293.108 249.918 293.586C250.163 294.061 250.286 294.617 250.286 295.252C250.286 295.882 250.163 296.436 249.918 296.914C249.672 297.389 249.322 297.761 248.868 298.028C248.417 298.292 247.88 298.424 247.258 298.424ZM247.266 297.102C247.549 297.102 247.786 297.022 247.975 296.862C248.165 296.699 248.308 296.478 248.404 296.197C248.503 295.917 248.552 295.598 248.552 295.24C248.552 294.882 248.503 294.563 248.404 294.283C248.308 294.002 248.165 293.781 247.975 293.618C247.786 293.455 247.549 293.374 247.266 293.374C246.981 293.374 246.74 293.455 246.545 293.618C246.353 293.781 246.208 294.002 246.109 294.283C246.013 294.563 245.965 294.882 245.965 295.24C245.965 295.598 246.013 295.917 246.109 296.197C246.208 296.478 246.353 296.699 246.545 296.862C246.74 297.022 246.981 297.102 247.266 297.102ZM214.31 304.101H216.449L218.708 309.613H218.804L221.063 304.101H223.202V312.304H221.519V306.965H221.451L219.329 312.264H218.183L216.06 306.945H215.992V312.304H214.31V304.101ZM226.353 312.42C225.96 312.42 225.61 312.352 225.303 312.216C224.996 312.077 224.753 311.873 224.574 311.603C224.398 311.331 224.31 310.992 224.31 310.586C224.31 310.244 224.373 309.957 224.498 309.725C224.624 309.492 224.795 309.305 225.011 309.164C225.227 309.022 225.473 308.916 225.748 308.844C226.026 308.771 226.317 308.721 226.621 308.691C226.979 308.654 227.267 308.619 227.486 308.587C227.705 308.552 227.864 308.502 227.963 308.435C228.061 308.368 228.111 308.269 228.111 308.139V308.115C228.111 307.861 228.031 307.665 227.871 307.526C227.713 307.387 227.489 307.318 227.198 307.318C226.891 307.318 226.646 307.386 226.465 307.522C226.283 307.655 226.163 307.824 226.104 308.026L224.526 307.898C224.606 307.525 224.764 307.201 224.999 306.929C225.234 306.654 225.537 306.443 225.908 306.296C226.282 306.147 226.714 306.072 227.206 306.072C227.548 306.072 227.875 306.112 228.187 306.192C228.502 306.272 228.781 306.396 229.024 306.565C229.27 306.733 229.463 306.949 229.605 307.213C229.746 307.475 229.817 307.789 229.817 308.155V312.304H228.199V311.451H228.151C228.052 311.643 227.92 311.813 227.754 311.96C227.589 312.104 227.39 312.217 227.158 312.3C226.925 312.38 226.657 312.42 226.353 312.42ZM226.841 311.243C227.092 311.243 227.314 311.193 227.506 311.094C227.698 310.993 227.849 310.857 227.959 310.686C228.068 310.515 228.123 310.321 228.123 310.105V309.452C228.07 309.487 227.996 309.519 227.903 309.548C227.812 309.575 227.709 309.601 227.594 309.625C227.479 309.646 227.365 309.666 227.25 309.685C227.135 309.701 227.031 309.715 226.937 309.729C226.737 309.758 226.562 309.805 226.413 309.869C226.263 309.933 226.147 310.02 226.064 310.129C225.982 310.236 225.94 310.369 225.94 310.53C225.94 310.762 226.024 310.94 226.192 311.062C226.363 311.183 226.58 311.243 226.841 311.243ZM231.141 312.304V306.152H232.795V307.225H232.859C232.971 306.844 233.159 306.555 233.424 306.36C233.688 306.163 233.992 306.064 234.337 306.064C234.422 306.064 234.514 306.069 234.613 306.08C234.712 306.091 234.799 306.105 234.874 306.124V307.638C234.793 307.614 234.683 307.593 234.541 307.574C234.4 307.555 234.27 307.546 234.153 307.546C233.902 307.546 233.677 307.601 233.48 307.71C233.285 307.817 233.13 307.966 233.015 308.159C232.903 308.351 232.847 308.573 232.847 308.824V312.304H231.141ZM237.302 310.534L237.306 308.487H237.554L239.524 306.152H241.483L238.836 309.244H238.431L237.302 310.534ZM235.756 312.304V304.101H237.462V312.304H235.756ZM239.601 312.304L237.79 309.625L238.928 308.419L241.599 312.304H239.601ZM244.87 312.424C244.237 312.424 243.693 312.296 243.236 312.04C242.782 311.781 242.433 311.415 242.187 310.942C241.941 310.467 241.818 309.905 241.818 309.256C241.818 308.623 241.941 308.068 242.187 307.59C242.433 307.112 242.778 306.74 243.224 306.473C243.673 306.205 244.199 306.072 244.802 306.072C245.208 306.072 245.586 306.137 245.936 306.268C246.288 306.396 246.595 306.59 246.857 306.849C247.121 307.108 247.327 307.434 247.474 307.826C247.62 308.216 247.694 308.673 247.694 309.196V309.665H242.499V308.607H246.088C246.088 308.362 246.034 308.144 245.928 307.954C245.821 307.765 245.673 307.617 245.483 307.51C245.296 307.4 245.079 307.346 244.83 307.346C244.571 307.346 244.342 307.406 244.141 307.526C243.944 307.643 243.789 307.802 243.677 308.002C243.565 308.2 243.507 308.42 243.505 308.663V309.669C243.505 309.973 243.561 310.236 243.673 310.458C243.788 310.679 243.949 310.85 244.157 310.97C244.366 311.09 244.613 311.15 244.898 311.15C245.088 311.15 245.261 311.124 245.419 311.07C245.577 311.017 245.711 310.937 245.824 310.83C245.936 310.723 246.021 310.592 246.08 310.438L247.658 310.542C247.578 310.921 247.414 311.252 247.165 311.535C246.92 311.815 246.602 312.034 246.212 312.192C245.825 312.347 245.378 312.424 244.87 312.424ZM252.08 306.152V307.434H248.375V306.152H252.08ZM249.216 304.678H250.922V310.414C250.922 310.571 250.946 310.694 250.994 310.782C251.042 310.867 251.109 310.928 251.194 310.962C251.282 310.997 251.384 311.014 251.499 311.014C251.579 311.014 251.659 311.008 251.739 310.994C251.819 310.978 251.881 310.966 251.923 310.958L252.192 312.228C252.106 312.255 251.986 312.285 251.831 312.32C251.676 312.357 251.488 312.38 251.266 312.388C250.855 312.404 250.495 312.349 250.185 312.224C249.878 312.098 249.639 311.903 249.468 311.639C249.297 311.375 249.213 311.041 249.216 310.638V304.678ZM255.23 304.101L255.073 309.845H253.607L253.447 304.101H255.23ZM254.34 312.408C254.076 312.408 253.849 312.315 253.66 312.128C253.47 311.938 253.377 311.711 253.379 311.447C253.377 311.185 253.47 310.961 253.66 310.774C253.849 310.587 254.076 310.494 254.34 310.494C254.594 310.494 254.817 310.587 255.009 310.774C255.202 310.961 255.299 311.185 255.302 311.447C255.299 311.623 255.252 311.785 255.161 311.931C255.073 312.076 254.957 312.192 254.813 312.28C254.669 312.365 254.511 312.408 254.34 312.408Z" fill="white"/>
<ellipse cx="234.883" cy="169.877" rx="46.8759" ry="46.8759" fill="#FE6B36"/>
<path d="M211.601 155.71C211.569 155.387 211.431 155.136 211.189 154.957C210.946 154.778 210.616 154.688 210.199 154.688C209.916 154.688 209.677 154.728 209.482 154.808C209.287 154.886 209.138 154.994 209.034 155.133C208.932 155.272 208.882 155.429 208.882 155.606C208.876 155.752 208.907 155.881 208.974 155.99C209.043 156.099 209.138 156.194 209.258 156.274C209.378 156.352 209.517 156.42 209.675 156.479C209.832 156.535 210 156.583 210.179 156.623L210.916 156.799C211.274 156.879 211.602 156.986 211.901 157.119C212.2 157.253 212.459 157.417 212.678 157.612C212.897 157.807 213.067 158.037 213.187 158.301C213.31 158.565 213.373 158.868 213.375 159.21C213.373 159.712 213.244 160.147 212.991 160.516C212.74 160.882 212.377 161.166 211.901 161.369C211.429 161.569 210.859 161.669 210.191 161.669C209.529 161.669 208.952 161.568 208.461 161.365C207.972 161.162 207.591 160.862 207.316 160.464C207.043 160.063 206.9 159.568 206.887 158.978H208.565C208.584 159.253 208.663 159.482 208.801 159.667C208.943 159.848 209.131 159.986 209.366 160.079C209.604 160.17 209.872 160.215 210.171 160.215C210.465 160.215 210.72 160.173 210.936 160.087C211.155 160.002 211.325 159.883 211.445 159.731C211.565 159.579 211.625 159.404 211.625 159.206C211.625 159.022 211.57 158.867 211.461 158.742C211.354 158.616 211.197 158.509 210.988 158.421C210.783 158.333 210.53 158.253 210.231 158.181L209.338 157.957C208.647 157.788 208.101 157.525 207.7 157.167C207.3 156.81 207.101 156.328 207.103 155.722C207.101 155.225 207.233 154.791 207.5 154.42C207.769 154.049 208.139 153.759 208.609 153.551C209.079 153.343 209.613 153.238 210.211 153.238C210.82 153.238 211.351 153.343 211.805 153.551C212.262 153.759 212.617 154.049 212.871 154.42C213.124 154.791 213.255 155.221 213.263 155.71H211.601ZM217.313 161.673C216.681 161.673 216.136 161.545 215.679 161.289C215.225 161.03 214.876 160.664 214.63 160.191C214.384 159.716 214.261 159.154 214.261 158.505C214.261 157.872 214.384 157.317 214.63 156.839C214.876 156.361 215.221 155.989 215.667 155.722C216.116 155.455 216.642 155.321 217.245 155.321C217.651 155.321 218.029 155.387 218.379 155.517C218.731 155.646 219.038 155.839 219.3 156.098C219.564 156.357 219.77 156.683 219.917 157.075C220.064 157.465 220.137 157.922 220.137 158.445V158.914H214.942V157.856H218.531C218.531 157.611 218.477 157.393 218.371 157.204C218.264 157.014 218.116 156.866 217.926 156.759C217.739 156.65 217.522 156.595 217.273 156.595C217.014 156.595 216.785 156.655 216.584 156.775C216.387 156.892 216.232 157.051 216.12 157.252C216.008 157.449 215.95 157.669 215.948 157.912V158.918C215.948 159.222 216.004 159.485 216.116 159.707C216.231 159.928 216.392 160.099 216.6 160.219C216.809 160.34 217.056 160.4 217.341 160.4C217.531 160.4 217.705 160.373 217.862 160.32C218.02 160.266 218.154 160.186 218.267 160.079C218.379 159.972 218.464 159.842 218.523 159.687L220.101 159.791C220.021 160.17 219.857 160.501 219.608 160.784C219.363 161.064 219.045 161.283 218.655 161.441C218.268 161.596 217.821 161.673 217.313 161.673ZM224.523 155.401V156.683H220.818V155.401H224.523ZM221.659 153.927H223.365V159.663C223.365 159.82 223.389 159.943 223.437 160.031C223.485 160.117 223.552 160.177 223.637 160.211C223.726 160.246 223.827 160.263 223.942 160.263C224.022 160.263 224.102 160.257 224.182 160.243C224.262 160.227 224.324 160.215 224.366 160.207L224.635 161.477C224.549 161.504 224.429 161.534 224.274 161.569C224.119 161.607 223.931 161.629 223.71 161.637C223.298 161.653 222.938 161.598 222.628 161.473C222.321 161.348 222.082 161.153 221.911 160.888C221.74 160.624 221.656 160.29 221.659 159.887V153.927ZM228.906 155.401V156.683H225.201V155.401H228.906ZM226.042 153.927H227.749V159.663C227.749 159.82 227.773 159.943 227.821 160.031C227.869 160.117 227.936 160.177 228.021 160.211C228.109 160.246 228.211 160.263 228.325 160.263C228.406 160.263 228.486 160.257 228.566 160.243C228.646 160.227 228.707 160.215 228.75 160.207L229.018 161.477C228.933 161.504 228.813 161.534 228.658 161.569C228.503 161.607 228.315 161.629 228.093 161.637C227.682 161.653 227.321 161.598 227.012 161.473C226.705 161.348 226.466 161.153 226.295 160.888C226.124 160.624 226.04 160.29 226.042 159.887V153.927ZM230.018 161.553V155.401H231.724V161.553H230.018ZM230.875 154.608C230.621 154.608 230.403 154.524 230.222 154.356C230.043 154.185 229.953 153.981 229.953 153.743C229.953 153.508 230.043 153.307 230.222 153.138C230.403 152.967 230.621 152.882 230.875 152.882C231.128 152.882 231.345 152.967 231.523 153.138C231.705 153.307 231.796 153.508 231.796 153.743C231.796 153.981 231.705 154.185 231.523 154.356C231.345 154.524 231.128 154.608 230.875 154.608ZM234.797 157.997V161.553H233.09V155.401H234.717V156.487H234.789C234.925 156.129 235.153 155.846 235.474 155.638C235.794 155.427 236.182 155.321 236.639 155.321C237.066 155.321 237.439 155.415 237.756 155.601C238.074 155.788 238.321 156.055 238.497 156.403C238.674 156.747 238.762 157.158 238.762 157.636V161.553H237.056V157.94C237.058 157.564 236.962 157.27 236.767 157.059C236.572 156.846 236.304 156.739 235.962 156.739C235.733 156.739 235.53 156.788 235.353 156.887C235.18 156.986 235.044 157.13 234.945 157.32C234.849 157.507 234.799 157.732 234.797 157.997ZM242.878 163.988C242.325 163.988 241.851 163.912 241.456 163.76C241.064 163.61 240.751 163.406 240.519 163.147C240.287 162.888 240.136 162.597 240.066 162.274L241.644 162.062C241.692 162.185 241.769 162.299 241.873 162.406C241.977 162.513 242.114 162.598 242.285 162.663C242.459 162.729 242.67 162.763 242.918 162.763C243.289 162.763 243.595 162.672 243.835 162.49C244.078 162.311 244.2 162.011 244.2 161.589V160.464H244.128C244.053 160.635 243.941 160.796 243.791 160.948C243.642 161.101 243.449 161.225 243.214 161.321C242.979 161.417 242.699 161.465 242.373 161.465C241.911 161.465 241.491 161.358 241.112 161.145C240.735 160.928 240.435 160.599 240.211 160.155C239.989 159.709 239.878 159.146 239.878 158.465C239.878 157.768 239.992 157.186 240.219 156.719C240.446 156.252 240.747 155.902 241.124 155.67C241.503 155.437 241.918 155.321 242.369 155.321C242.714 155.321 243.002 155.38 243.234 155.497C243.467 155.612 243.654 155.756 243.795 155.93C243.939 156.101 244.05 156.269 244.128 156.435H244.192V155.401H245.886V161.613C245.886 162.137 245.758 162.574 245.501 162.927C245.245 163.279 244.89 163.544 244.436 163.72C243.985 163.899 243.465 163.988 242.878 163.988ZM242.914 160.183C243.189 160.183 243.421 160.115 243.611 159.979C243.803 159.84 243.95 159.643 244.052 159.386C244.156 159.127 244.208 158.818 244.208 158.457C244.208 158.097 244.157 157.784 244.056 157.52C243.954 157.253 243.807 157.046 243.615 156.899C243.423 156.752 243.189 156.679 242.914 156.679C242.634 156.679 242.397 156.755 242.205 156.907C242.013 157.057 241.867 157.265 241.769 157.532C241.67 157.799 241.62 158.107 241.62 158.457C241.62 158.812 241.67 159.119 241.769 159.378C241.87 159.635 242.016 159.834 242.205 159.975C242.397 160.114 242.634 160.183 242.914 160.183ZM253.799 158.934V155.401H255.505V161.553H253.867V160.436H253.803C253.664 160.796 253.433 161.086 253.11 161.305C252.79 161.524 252.398 161.633 251.937 161.633C251.525 161.633 251.164 161.54 250.851 161.353C250.539 161.166 250.294 160.9 250.118 160.556C249.945 160.211 249.857 159.799 249.854 159.318V155.401H251.56V159.014C251.563 159.377 251.66 159.664 251.852 159.875C252.045 160.086 252.302 160.191 252.625 160.191C252.831 160.191 253.023 160.145 253.202 160.051C253.381 159.955 253.525 159.814 253.635 159.627C253.747 159.44 253.802 159.209 253.799 158.934ZM256.87 163.86V155.401H258.552V156.435H258.628C258.703 156.269 258.811 156.101 258.953 155.93C259.097 155.756 259.284 155.612 259.513 155.497C259.746 155.38 260.034 155.321 260.378 155.321C260.827 155.321 261.241 155.439 261.62 155.674C261.999 155.906 262.302 156.257 262.529 156.727C262.756 157.194 262.87 157.78 262.87 158.485C262.87 159.171 262.759 159.751 262.537 160.223C262.318 160.693 262.019 161.05 261.64 161.293C261.263 161.533 260.842 161.653 260.374 161.653C260.043 161.653 259.762 161.598 259.529 161.489C259.3 161.38 259.111 161.242 258.965 161.076C258.818 160.908 258.706 160.739 258.628 160.568H258.576V163.86H256.87ZM258.54 158.477C258.54 158.843 258.591 159.162 258.692 159.434C258.794 159.707 258.941 159.919 259.133 160.071C259.325 160.221 259.559 160.295 259.834 160.295C260.111 160.295 260.346 160.219 260.539 160.067C260.731 159.912 260.876 159.699 260.975 159.426C261.077 159.151 261.127 158.835 261.127 158.477C261.127 158.122 261.078 157.81 260.979 157.54C260.88 157.27 260.735 157.059 260.543 156.907C260.35 156.755 260.114 156.679 259.834 156.679C259.556 156.679 259.321 156.752 259.129 156.899C258.939 157.046 258.794 157.254 258.692 157.524C258.591 157.794 258.54 158.111 258.54 158.477ZM227.993 170.002C227.937 169.807 227.859 169.635 227.757 169.485C227.656 169.333 227.532 169.205 227.385 169.101C227.241 168.994 227.075 168.913 226.888 168.857C226.704 168.8 226.5 168.772 226.275 168.772C225.856 168.772 225.488 168.877 225.17 169.085C224.855 169.293 224.609 169.596 224.433 169.994C224.257 170.389 224.169 170.872 224.169 171.444C224.169 172.015 224.255 172.501 224.429 172.902C224.602 173.302 224.848 173.608 225.166 173.819C225.484 174.027 225.859 174.131 226.291 174.131C226.684 174.131 227.019 174.062 227.297 173.923C227.577 173.782 227.791 173.583 227.937 173.326C228.087 173.07 228.162 172.767 228.162 172.417L228.514 172.469H226.399V171.163H229.832V172.197C229.832 172.918 229.68 173.537 229.375 174.055C229.071 174.571 228.652 174.968 228.118 175.249C227.584 175.526 226.972 175.665 226.283 175.665C225.514 175.665 224.839 175.496 224.257 175.157C223.675 174.815 223.221 174.33 222.895 173.703C222.572 173.073 222.41 172.325 222.41 171.46C222.41 170.795 222.506 170.202 222.699 169.682C222.894 169.158 223.166 168.715 223.516 168.352C223.866 167.989 224.273 167.712 224.737 167.523C225.202 167.333 225.705 167.238 226.247 167.238C226.712 167.238 227.144 167.307 227.545 167.443C227.945 167.576 228.301 167.766 228.61 168.011C228.923 168.257 229.178 168.549 229.375 168.889C229.573 169.225 229.7 169.596 229.756 170.002H227.993ZM230.47 168.78V167.351H237.206V168.78H234.695V175.553H232.981V168.78H230.47ZM238.316 167.351H240.454L242.713 172.862H242.809L245.068 167.351H247.207V175.553H245.525V170.214H245.457L243.334 175.513H242.189L240.066 170.194H239.998V175.553H238.316V167.351ZM216.713 184.222H214.958C214.926 183.995 214.861 183.794 214.762 183.618C214.663 183.439 214.536 183.286 214.382 183.161C214.227 183.035 214.048 182.939 213.845 182.873C213.645 182.806 213.427 182.772 213.192 182.772C212.768 182.772 212.398 182.878 212.083 183.089C211.768 183.297 211.523 183.601 211.35 184.002C211.176 184.4 211.089 184.883 211.089 185.452C211.089 186.037 211.176 186.528 211.35 186.926C211.526 187.324 211.772 187.624 212.087 187.827C212.402 188.03 212.766 188.131 213.18 188.131C213.412 188.131 213.627 188.101 213.825 188.039C214.025 187.978 214.203 187.888 214.358 187.771C214.512 187.651 214.641 187.505 214.742 187.334C214.846 187.163 214.918 186.968 214.958 186.75L216.713 186.758C216.667 187.134 216.554 187.497 216.372 187.847C216.193 188.194 215.952 188.505 215.647 188.78C215.345 189.052 214.985 189.269 214.566 189.429C214.149 189.586 213.678 189.665 213.152 189.665C212.42 189.665 211.766 189.5 211.19 189.169C210.615 188.838 210.162 188.358 209.828 187.731C209.497 187.103 209.331 186.344 209.331 185.452C209.331 184.557 209.499 183.796 209.836 183.169C210.172 182.541 210.629 182.064 211.206 181.735C211.782 181.404 212.431 181.238 213.152 181.238C213.627 181.238 214.068 181.305 214.474 181.439C214.882 181.572 215.244 181.767 215.559 182.023C215.874 182.277 216.13 182.588 216.328 182.957C216.528 183.325 216.657 183.747 216.713 184.222ZM219.63 185.997V189.553H217.924V181.351H219.582V184.487H219.654C219.793 184.123 220.017 183.839 220.327 183.634C220.637 183.425 221.025 183.321 221.493 183.321C221.92 183.321 222.292 183.415 222.61 183.601C222.931 183.786 223.179 184.051 223.355 184.399C223.534 184.743 223.622 185.155 223.619 185.636V189.553H221.913V185.94C221.916 185.561 221.82 185.266 221.625 185.055C221.433 184.844 221.163 184.739 220.816 184.739C220.584 184.739 220.378 184.788 220.199 184.887C220.023 184.986 219.884 185.13 219.782 185.32C219.684 185.507 219.633 185.732 219.63 185.997ZM226.716 189.669C226.324 189.669 225.974 189.601 225.667 189.465C225.36 189.326 225.117 189.122 224.938 188.852C224.762 188.58 224.674 188.241 224.674 187.835C224.674 187.493 224.736 187.206 224.862 186.974C224.987 186.742 225.158 186.555 225.375 186.413C225.591 186.272 225.837 186.165 226.112 186.093C226.389 186.021 226.68 185.97 226.985 185.94C227.342 185.903 227.631 185.868 227.85 185.836C228.069 185.802 228.228 185.751 228.326 185.684C228.425 185.617 228.475 185.519 228.475 185.388V185.364C228.475 185.11 228.394 184.914 228.234 184.775C228.077 184.636 227.852 184.567 227.561 184.567C227.254 184.567 227.01 184.635 226.828 184.771C226.647 184.904 226.527 185.073 226.468 185.276L224.89 185.147C224.97 184.774 225.128 184.451 225.363 184.178C225.598 183.903 225.901 183.692 226.272 183.545C226.646 183.396 227.078 183.321 227.569 183.321C227.911 183.321 228.238 183.361 228.551 183.441C228.866 183.521 229.145 183.646 229.388 183.814C229.633 183.982 229.827 184.198 229.969 184.463C230.11 184.724 230.181 185.038 230.181 185.404V189.553H228.563V188.7H228.515C228.416 188.892 228.284 189.062 228.118 189.209C227.953 189.353 227.754 189.466 227.521 189.549C227.289 189.629 227.021 189.669 226.716 189.669ZM227.205 188.492C227.456 188.492 227.678 188.442 227.87 188.344C228.062 188.242 228.213 188.106 228.322 187.935C228.432 187.764 228.487 187.571 228.487 187.354V186.701C228.433 186.736 228.36 186.768 228.266 186.798C228.176 186.824 228.073 186.85 227.958 186.874C227.843 186.895 227.728 186.915 227.613 186.934C227.499 186.95 227.395 186.964 227.301 186.978C227.101 187.007 226.926 187.054 226.776 187.118C226.627 187.182 226.511 187.269 226.428 187.378C226.345 187.485 226.304 187.619 226.304 187.779C226.304 188.011 226.388 188.189 226.556 188.312C226.727 188.432 226.943 188.492 227.205 188.492ZM233.211 185.997V189.553H231.504V183.401H233.131V184.487H233.203C233.339 184.129 233.567 183.846 233.888 183.638C234.208 183.427 234.596 183.321 235.053 183.321C235.48 183.321 235.853 183.415 236.17 183.601C236.488 183.788 236.735 184.055 236.911 184.403C237.088 184.747 237.176 185.158 237.176 185.636V189.553H235.47V185.94C235.472 185.564 235.376 185.27 235.181 185.059C234.986 184.846 234.718 184.739 234.376 184.739C234.147 184.739 233.944 184.788 233.767 184.887C233.594 184.986 233.458 185.13 233.359 185.32C233.263 185.507 233.213 185.732 233.211 185.997ZM240.227 185.997V189.553H238.52V183.401H240.147V184.487H240.219C240.355 184.129 240.583 183.846 240.903 183.638C241.224 183.427 241.612 183.321 242.069 183.321C242.496 183.321 242.869 183.415 243.186 183.601C243.504 183.788 243.751 184.055 243.927 184.403C244.104 184.747 244.192 185.158 244.192 185.636V189.553H242.486V185.94C242.488 185.564 242.392 185.27 242.197 185.059C242.002 184.846 241.734 184.739 241.392 184.739C241.162 184.739 240.96 184.788 240.783 184.887C240.61 184.986 240.474 185.13 240.375 185.32C240.279 185.507 240.229 185.732 240.227 185.997ZM248.34 189.673C247.707 189.673 247.162 189.545 246.706 189.289C246.252 189.03 245.902 188.664 245.657 188.191C245.411 187.716 245.288 187.154 245.288 186.505C245.288 185.872 245.411 185.317 245.657 184.839C245.902 184.361 246.248 183.989 246.694 183.722C247.142 183.455 247.668 183.321 248.272 183.321C248.678 183.321 249.056 183.387 249.405 183.517C249.758 183.646 250.065 183.839 250.327 184.098C250.591 184.357 250.796 184.683 250.943 185.075C251.09 185.465 251.164 185.922 251.164 186.445V186.914H245.969V185.856H249.558C249.558 185.611 249.504 185.393 249.397 185.204C249.291 185.014 249.142 184.866 248.953 184.759C248.766 184.65 248.548 184.595 248.3 184.595C248.041 184.595 247.811 184.655 247.611 184.775C247.413 184.892 247.259 185.051 247.146 185.252C247.034 185.449 246.977 185.669 246.974 185.912V186.918C246.974 187.222 247.03 187.485 247.142 187.707C247.257 187.928 247.419 188.099 247.627 188.219C247.835 188.34 248.082 188.4 248.368 188.4C248.558 188.4 248.731 188.373 248.889 188.32C249.046 188.266 249.181 188.186 249.293 188.079C249.405 187.972 249.491 187.842 249.55 187.687L251.128 187.791C251.047 188.17 250.883 188.501 250.635 188.784C250.389 189.064 250.072 189.283 249.682 189.441C249.295 189.596 248.847 189.673 248.34 189.673ZM253.983 181.351V189.553H252.277V181.351H253.983ZM260.468 185.155L258.906 185.252C258.88 185.118 258.822 184.998 258.734 184.891C258.646 184.782 258.53 184.695 258.386 184.631C258.244 184.564 258.075 184.531 257.877 184.531C257.613 184.531 257.39 184.587 257.208 184.699C257.027 184.808 256.936 184.955 256.936 185.139C256.936 185.286 256.995 185.41 257.112 185.512C257.23 185.613 257.431 185.695 257.717 185.756L258.83 185.981C259.428 186.103 259.874 186.301 260.168 186.573C260.462 186.846 260.609 187.203 260.609 187.647C260.609 188.05 260.49 188.404 260.252 188.708C260.017 189.012 259.694 189.25 259.283 189.421C258.874 189.589 258.403 189.673 257.869 189.673C257.055 189.673 256.406 189.504 255.923 189.165C255.442 188.823 255.16 188.358 255.078 187.771L256.756 187.683C256.806 187.931 256.929 188.121 257.124 188.251C257.319 188.38 257.569 188.444 257.873 188.444C258.172 188.444 258.413 188.386 258.594 188.271C258.778 188.154 258.872 188.003 258.874 187.819C258.872 187.664 258.806 187.537 258.678 187.438C258.55 187.337 258.352 187.26 258.085 187.206L257.02 186.994C256.419 186.874 255.972 186.665 255.678 186.369C255.387 186.073 255.242 185.695 255.242 185.236C255.242 184.84 255.349 184.5 255.562 184.214C255.778 183.929 256.082 183.708 256.471 183.553C256.864 183.399 257.323 183.321 257.849 183.321C258.626 183.321 259.238 183.485 259.683 183.814C260.132 184.142 260.394 184.589 260.468 185.155Z" fill="white"/>
<ellipse cx="47.3793" cy="75.8032" rx="46.8759" ry="46.8759" fill="#FE6B36"/>
<path d="M28.4099 70.0335C28.3779 69.7104 28.2404 69.4594 27.9974 69.2805C27.7544 69.1016 27.4247 69.0122 27.0081 69.0122C26.7251 69.0122 26.4861 69.0522 26.2912 69.1323C26.0963 69.2098 25.9468 69.3179 25.8426 69.4568C25.7412 69.5956 25.6904 69.7531 25.6904 69.9294C25.6851 70.0762 25.7158 70.2044 25.7826 70.3138C25.852 70.4233 25.9468 70.5181 26.0669 70.5982C26.1871 70.6756 26.3259 70.7437 26.4835 70.8025C26.641 70.8585 26.8092 70.9066 26.9881 70.9467L27.725 71.1229C28.0828 71.203 28.4113 71.3098 28.7103 71.4433C29.0094 71.5768 29.2684 71.741 29.4873 71.9359C29.7062 72.1308 29.8758 72.3605 29.9959 72.6248C30.1188 72.8891 30.1815 73.1922 30.1842 73.534C30.1815 74.0359 30.0534 74.4712 29.7997 74.8396C29.5487 75.2054 29.1856 75.4898 28.7103 75.6927C28.2377 75.893 27.6676 75.9931 27.0001 75.9931C26.3379 75.9931 25.7612 75.8916 25.2699 75.6887C24.7813 75.4858 24.3995 75.1854 24.1244 74.7876C23.8521 74.387 23.7092 73.8918 23.6959 73.3017H25.374C25.3927 73.5767 25.4715 73.8063 25.6103 73.9905C25.7519 74.1721 25.9401 74.3096 26.1751 74.4031C26.4127 74.4939 26.681 74.5392 26.9801 74.5392C27.2738 74.5392 27.5288 74.4965 27.7451 74.4111C27.964 74.3256 28.1336 74.2068 28.2537 74.0546C28.3739 73.9024 28.434 73.7275 28.434 73.53C28.434 73.3457 28.3792 73.1909 28.2697 73.0654C28.1629 72.9399 28.0054 72.8331 27.7971 72.745C27.5915 72.6568 27.3392 72.5767 27.0402 72.5046L26.147 72.2804C25.4555 72.1121 24.9094 71.8491 24.5089 71.4914C24.1084 71.1336 23.9095 70.6516 23.9122 70.0455C23.9095 69.5489 24.0417 69.115 24.3087 68.7438C24.5784 68.3727 24.9482 68.083 25.4181 67.8747C25.888 67.6665 26.422 67.5623 27.0201 67.5623C27.6289 67.5623 28.1603 67.6665 28.6142 67.8747C29.0708 68.083 29.4259 68.3727 29.6795 68.7438C29.9332 69.115 30.064 69.5449 30.072 70.0335H28.4099ZM34.5908 69.7251V71.0067H30.8861V69.7251H34.5908ZM31.7272 68.2512H33.4333V73.9865C33.4333 74.1441 33.4574 74.2669 33.5054 74.355C33.5535 74.4405 33.6202 74.5005 33.7057 74.5352C33.7938 74.5699 33.8953 74.5873 34.0101 74.5873C34.0902 74.5873 34.1703 74.5806 34.2504 74.5673C34.3305 74.5513 34.3919 74.5392 34.4346 74.5312L34.703 75.8009C34.6175 75.8276 34.4974 75.8583 34.3425 75.893C34.1876 75.9304 33.9994 75.9531 33.7778 75.9611C33.3666 75.9771 33.0061 75.9223 32.6964 75.7969C32.3893 75.6714 32.1504 75.4764 31.9795 75.2121C31.8086 74.9478 31.7245 74.614 31.7272 74.2108V68.2512ZM35.7022 75.877V69.7251H37.3564V70.7985H37.4204C37.5326 70.4166 37.7208 70.1283 37.9852 69.9334C38.2495 69.7358 38.5539 69.637 38.8983 69.637C38.9838 69.637 39.0759 69.6423 39.1747 69.653C39.2735 69.6637 39.3602 69.6784 39.435 69.6971V71.211C39.3549 71.187 39.2441 71.1656 39.1026 71.1469C38.9611 71.1282 38.8316 71.1189 38.7141 71.1189C38.4631 71.1189 38.2388 71.1736 38.0412 71.2831C37.8463 71.3899 37.6914 71.5394 37.5766 71.7317C37.4645 71.9239 37.4084 72.1455 37.4084 72.3965V75.877H35.7022ZM41.8951 75.9931C41.5026 75.9931 41.1529 75.925 40.8458 75.7888C40.5387 75.65 40.2958 75.4457 40.1169 75.1761C39.9407 74.9037 39.8525 74.5646 39.8525 74.1588C39.8525 73.817 39.9153 73.53 40.0408 73.2977C40.1663 73.0654 40.3372 72.8785 40.5534 72.7369C40.7697 72.5954 41.0154 72.4886 41.2904 72.4165C41.5681 72.3444 41.8591 72.2937 42.1635 72.2643C42.5213 72.227 42.8096 72.1922 43.0286 72.1602C43.2475 72.1255 43.4064 72.0748 43.5052 72.008C43.604 71.9413 43.6534 71.8425 43.6534 71.7116V71.6876C43.6534 71.4339 43.5733 71.2377 43.4131 71.0988C43.2556 70.96 43.0313 70.8906 42.7402 70.8906C42.4332 70.8906 42.1889 70.9587 42.0073 71.0948C41.8257 71.2283 41.7056 71.3966 41.6468 71.5995L40.0688 71.4713C40.1489 71.0975 40.3065 70.7744 40.5414 70.5021C40.7764 70.2271 41.0794 70.0161 41.4506 69.8693C41.8244 69.7198 42.2569 69.645 42.7482 69.645C43.09 69.645 43.4171 69.685 43.7295 69.7651C44.0446 69.8452 44.3236 69.9694 44.5666 70.1376C44.8122 70.3058 45.0058 70.5221 45.1473 70.7864C45.2888 71.0481 45.3596 71.3619 45.3596 71.7277V75.877H43.7415V75.0239H43.6934C43.5947 75.2161 43.4625 75.3857 43.2969 75.5325C43.1314 75.6767 42.9325 75.7902 42.7002 75.8729C42.4679 75.9531 42.1995 75.9931 41.8951 75.9931ZM42.3838 74.8156C42.6348 74.8156 42.8564 74.7662 43.0486 74.6674C43.2409 74.5659 43.3917 74.4298 43.5012 74.2589C43.6107 74.088 43.6654 73.8944 43.6654 73.6781V73.0253C43.612 73.06 43.5386 73.0921 43.4451 73.1214C43.3543 73.1481 43.2515 73.1735 43.1367 73.1975C43.0219 73.2189 42.9071 73.2389 42.7923 73.2576C42.6775 73.2736 42.5733 73.2883 42.4799 73.3017C42.2796 73.331 42.1047 73.3778 41.9552 73.4418C41.8057 73.5059 41.6896 73.5927 41.6068 73.7022C41.524 73.809 41.4826 73.9425 41.4826 74.1027C41.4826 74.335 41.5667 74.5125 41.7349 74.6354C41.9058 74.7555 42.1221 74.8156 42.3838 74.8156ZM49.9554 69.7251V71.0067H46.2507V69.7251H49.9554ZM47.0918 68.2512H48.798V73.9865C48.798 74.1441 48.822 74.2669 48.8701 74.355C48.9181 74.4405 48.9849 74.5005 49.0703 74.5352C49.1584 74.5699 49.2599 74.5873 49.3747 74.5873C49.4548 74.5873 49.5349 74.5806 49.615 74.5673C49.6951 74.5513 49.7565 74.5392 49.7992 74.5312L50.0676 75.8009C49.9821 75.8276 49.862 75.8583 49.7071 75.893C49.5523 75.9304 49.364 75.9531 49.1424 75.9611C48.7312 75.9771 48.3708 75.9223 48.061 75.7969C47.754 75.6714 47.515 75.4764 47.3441 75.2121C47.1732 74.9478 47.0891 74.614 47.0918 74.2108V68.2512ZM53.8044 75.9971C53.1716 75.9971 52.6269 75.8689 52.1703 75.6126C51.7164 75.3536 51.3666 74.9878 51.1209 74.5152C50.8753 74.0399 50.7525 73.4779 50.7525 72.8291C50.7525 72.1963 50.8753 71.6409 51.1209 71.1629C51.3666 70.685 51.7124 70.3125 52.1583 70.0455C52.6068 69.7785 53.1328 69.645 53.7363 69.645C54.1421 69.645 54.5199 69.7104 54.8697 69.8412C55.2222 69.9694 55.5292 70.163 55.7909 70.422C56.0552 70.681 56.2608 71.0067 56.4077 71.3992C56.5545 71.7891 56.628 72.2456 56.628 72.769V73.2376H51.4333V72.1802H55.0219C55.0219 71.9346 54.9685 71.717 54.8617 71.5274C54.7549 71.3378 54.6067 71.1896 54.4171 71.0828C54.2302 70.9734 54.0126 70.9186 53.7643 70.9186C53.5053 70.9186 53.2757 70.9787 53.0754 71.0988C52.8778 71.2163 52.723 71.3752 52.6108 71.5755C52.4987 71.773 52.4413 71.9933 52.4386 72.2363V73.2416C52.4386 73.546 52.4947 73.809 52.6068 74.0306C52.7216 74.2522 52.8832 74.4231 53.0915 74.5432C53.2997 74.6634 53.5467 74.7235 53.8324 74.7235C54.022 74.7235 54.1955 74.6968 54.3531 74.6434C54.5106 74.59 54.6454 74.5099 54.7576 74.4031C54.8697 74.2963 54.9552 74.1654 55.0139 74.0106L56.5919 74.1147C56.5118 74.4939 56.3476 74.8249 56.0993 75.108C55.8536 75.3883 55.5359 75.6073 55.1461 75.7648C54.7589 75.9197 54.3117 75.9971 53.8044 75.9971ZM60.5129 78.3121C59.9602 78.3121 59.4863 78.236 59.0911 78.0838C58.6986 77.9342 58.3862 77.73 58.1539 77.471C57.9216 77.212 57.7708 76.921 57.7013 76.5979L59.2794 76.3856C59.3274 76.5084 59.4035 76.6232 59.5077 76.73C59.6118 76.8368 59.7493 76.9223 59.9202 76.9864C60.0937 77.0531 60.3047 77.0865 60.553 77.0865C60.9241 77.0865 61.2299 76.9957 61.4702 76.8142C61.7131 76.6353 61.8346 76.3349 61.8346 75.913V74.7876H61.7625C61.6878 74.9584 61.5756 75.12 61.4261 75.2722C61.2766 75.4244 61.0843 75.5485 60.8494 75.6447C60.6144 75.7408 60.334 75.7888 60.0083 75.7888C59.5464 75.7888 59.1258 75.682 58.7467 75.4684C58.3702 75.2522 58.0698 74.9224 57.8455 74.4792C57.6239 74.0333 57.5131 73.4699 57.5131 72.789C57.5131 72.0921 57.6266 71.51 57.8535 71.0428C58.0805 70.5755 58.3822 70.2257 58.7587 69.9934C59.1378 69.7611 59.553 69.645 60.0043 69.645C60.3487 69.645 60.6371 69.7037 60.8694 69.8212C61.1017 69.936 61.2886 70.0802 61.4301 70.2538C61.5743 70.4247 61.6851 70.5929 61.7625 70.7584H61.8266V69.7251H63.5208V75.937C63.5208 76.4604 63.3926 76.8983 63.1363 77.2507C62.88 77.6032 62.5248 77.8675 62.0709 78.0437C61.6197 78.2226 61.1004 78.3121 60.5129 78.3121ZM60.549 74.5072C60.824 74.5072 61.0563 74.4391 61.2459 74.3029C61.4381 74.1641 61.585 73.9665 61.6864 73.7102C61.7906 73.4512 61.8426 73.1415 61.8426 72.781C61.8426 72.4205 61.7919 72.1081 61.6904 71.8438C61.589 71.5768 61.4421 71.3699 61.2499 71.223C61.0576 71.0762 60.824 71.0027 60.549 71.0027C60.2686 71.0027 60.0323 71.0788 59.8401 71.231C59.6478 71.3805 59.5023 71.5888 59.4035 71.8558C59.3047 72.1228 59.2553 72.4312 59.2553 72.781C59.2553 73.1361 59.3047 73.4432 59.4035 73.7022C59.505 73.9585 59.6505 74.1574 59.8401 74.2989C60.0323 74.4378 60.2686 74.5072 60.549 74.5072ZM65.9319 78.1839C65.7156 78.1839 65.5127 78.1665 65.3231 78.1318C65.1362 78.0998 64.9813 78.0584 64.8585 78.0077L65.243 76.734C65.4432 76.7955 65.6235 76.8288 65.7837 76.8342C65.9465 76.8395 66.0867 76.8021 66.2042 76.722C66.3244 76.6419 66.4218 76.5058 66.4966 76.3135L66.5967 76.0532L64.3899 69.7251H66.1842L67.4578 74.2429H67.5219L68.8075 69.7251H70.6138L68.2228 76.5418C68.108 76.8729 67.9518 77.1613 67.7542 77.4069C67.5593 77.6552 67.3123 77.8461 67.0132 77.9796C66.7142 78.1158 66.3537 78.1839 65.9319 78.1839ZM13.9044 89.877H10.9967V81.6745H13.9284C14.7535 81.6745 15.4637 81.8387 16.0591 82.1671C16.6546 82.4929 17.1125 82.9615 17.4329 83.5729C17.756 84.1843 17.9175 84.9159 17.9175 85.7677C17.9175 86.6221 17.756 87.3564 17.4329 87.9705C17.1125 88.5846 16.6519 89.0559 16.0511 89.3843C15.453 89.7127 14.7375 89.877 13.9044 89.877ZM12.7309 88.3911H13.8323C14.345 88.3911 14.7762 88.3003 15.126 88.1187C15.4784 87.9345 15.7427 87.6501 15.919 87.2656C16.0979 86.8785 16.1873 86.3792 16.1873 85.7677C16.1873 85.1616 16.0979 84.6663 15.919 84.2818C15.7427 83.8973 15.4797 83.6143 15.13 83.4327C14.7802 83.2512 14.349 83.1604 13.8363 83.1604H12.7309V88.3911ZM21.9737 89.9971C21.3409 89.9971 20.7962 89.8689 20.3396 89.6126C19.8857 89.3536 19.5359 88.9878 19.2903 88.5152C19.0446 88.0399 18.9218 87.4779 18.9218 86.8291C18.9218 86.1963 19.0446 85.6409 19.2903 85.1629C19.5359 84.685 19.8817 84.3125 20.3276 84.0455C20.7762 83.7785 21.3022 83.645 21.9056 83.645C22.3115 83.645 22.6893 83.7104 23.0391 83.8412C23.3915 83.9694 23.6986 84.163 23.9602 84.422C24.2246 84.681 24.4302 85.0067 24.577 85.3992C24.7239 85.7891 24.7973 86.2456 24.7973 86.769V87.2376H19.6027V86.1802H23.1913C23.1913 85.9346 23.1379 85.717 23.031 85.5274C22.9242 85.3378 22.7761 85.1896 22.5865 85.0828C22.3996 84.9734 22.182 84.9186 21.9336 84.9186C21.6747 84.9186 21.445 84.9787 21.2448 85.0988C21.0472 85.2163 20.8923 85.3752 20.7802 85.5755C20.668 85.773 20.6106 85.9933 20.608 86.2363V87.2416C20.608 87.546 20.664 87.809 20.7762 88.0306C20.891 88.2522 21.0525 88.4231 21.2608 88.5432C21.4691 88.6634 21.716 88.7235 22.0017 88.7235C22.1913 88.7235 22.3649 88.6968 22.5224 88.6434C22.6799 88.59 22.8148 88.5099 22.9269 88.4031C23.0391 88.2963 23.1245 88.1654 23.1832 88.0106L24.7613 88.1147C24.6812 88.4939 24.5169 88.8249 24.2686 89.108C24.023 89.3883 23.7052 89.6073 23.3154 89.7648C22.9283 89.9197 22.481 89.9971 21.9737 89.9971ZM31.4808 83.7251L29.3301 89.877H27.4076L25.2569 83.7251H27.0592L28.3368 88.1267H28.4009L29.6745 83.7251H31.4808ZM34.9593 89.9971C34.3265 89.9971 33.7818 89.8689 33.3252 89.6126C32.8713 89.3536 32.5215 88.9878 32.2759 88.5152C32.0302 88.0399 31.9074 87.4779 31.9074 86.8291C31.9074 86.1963 32.0302 85.6409 32.2759 85.1629C32.5215 84.685 32.8673 84.3125 33.3132 84.0455C33.7618 83.7785 34.2878 83.645 34.8912 83.645C35.2971 83.645 35.6749 83.7104 36.0247 83.8412C36.3771 83.9694 36.6842 84.163 36.9458 84.422C37.2102 84.681 37.4158 85.0067 37.5626 85.3992C37.7095 85.7891 37.7829 86.2456 37.7829 86.769V87.2376H32.5883V86.1802H36.1768C36.1768 85.9346 36.1234 85.717 36.0166 85.5274C35.9098 85.3378 35.7616 85.1896 35.5721 85.0828C35.3852 84.9734 35.1676 84.9186 34.9192 84.9186C34.6602 84.9186 34.4306 84.9787 34.2304 85.0988C34.0328 85.2163 33.8779 85.3752 33.7658 85.5755C33.6536 85.773 33.5962 85.9933 33.5935 86.2363V87.2416C33.5935 87.546 33.6496 87.809 33.7618 88.0306C33.8766 88.2522 34.0381 88.4231 34.2464 88.5432C34.4546 88.6634 34.7016 88.7235 34.9873 88.7235C35.1769 88.7235 35.3505 88.6968 35.508 88.6434C35.6655 88.59 35.8004 88.5099 35.9125 88.4031C36.0247 88.2963 36.1101 88.1654 36.1688 88.0106L37.7469 88.1147C37.6667 88.4939 37.5025 88.8249 37.2542 89.108C37.0086 89.3883 36.6908 89.6073 36.301 89.7648C35.9138 89.9197 35.4666 89.9971 34.9593 89.9971ZM40.6025 81.6745V89.877H38.8963V81.6745H40.6025ZM44.7488 89.9971C44.1267 89.9971 43.5886 89.8649 43.1347 89.6006C42.6835 89.3336 42.335 88.9625 42.0894 88.4872C41.8438 88.0092 41.7209 87.4552 41.7209 86.8251C41.7209 86.1896 41.8438 85.6342 42.0894 85.1589C42.335 84.681 42.6835 84.3098 43.1347 84.0455C43.5886 83.7785 44.1267 83.645 44.7488 83.645C45.3709 83.645 45.9076 83.7785 46.3589 84.0455C46.8128 84.3098 47.1625 84.681 47.4082 85.1589C47.6538 85.6342 47.7767 86.1896 47.7767 86.8251C47.7767 87.4552 47.6538 88.0092 47.4082 88.4872C47.1625 88.9625 46.8128 89.3336 46.3589 89.6006C45.9076 89.8649 45.3709 89.9971 44.7488 89.9971ZM44.7568 88.6754C45.0398 88.6754 45.2761 88.5953 45.4657 88.4351C45.6553 88.2722 45.7981 88.0506 45.8943 87.7703C45.9931 87.4899 46.0424 87.1708 46.0424 86.813C46.0424 86.4552 45.9931 86.1362 45.8943 85.8558C45.7981 85.5755 45.6553 85.3538 45.4657 85.191C45.2761 85.0281 45.0398 84.9467 44.7568 84.9467C44.4711 84.9467 44.2308 85.0281 44.0359 85.191C43.8436 85.3538 43.6981 85.5755 43.5993 85.8558C43.5032 86.1362 43.4551 86.4552 43.4551 86.813C43.4551 87.1708 43.5032 87.4899 43.5993 87.7703C43.6981 88.0506 43.8436 88.2722 44.0359 88.4351C44.2308 88.5953 44.4711 88.6754 44.7568 88.6754ZM48.8861 92.1839V83.7251H50.5682V84.7584H50.6443C50.7191 84.5929 50.8272 84.4247 50.9687 84.2538C51.1129 84.0802 51.2998 83.936 51.5295 83.8212C51.7618 83.7037 52.0501 83.645 52.3946 83.645C52.8431 83.645 53.257 83.7625 53.6362 83.9974C54.0153 84.2297 54.3184 84.5809 54.5453 85.0508C54.7723 85.5181 54.8857 86.1041 54.8857 86.809C54.8857 87.4952 54.7749 88.0747 54.5533 88.5473C54.3344 89.0172 54.0353 89.3736 53.6562 89.6166C53.2797 89.8569 52.8578 89.9771 52.3906 89.9771C52.0595 89.9771 51.7778 89.9223 51.5455 89.8129C51.3159 89.7034 51.1276 89.5659 50.9808 89.4003C50.8339 89.2321 50.7218 89.0626 50.6443 88.8917H50.5923V92.1839H48.8861ZM50.5562 86.801C50.5562 87.1668 50.6069 87.4859 50.7084 87.7582C50.8099 88.0306 50.9567 88.2429 51.149 88.3951C51.3412 88.5446 51.5749 88.6193 51.8499 88.6193C52.1276 88.6193 52.3625 88.5432 52.5548 88.3911C52.747 88.2362 52.8925 88.0226 52.9913 87.7502C53.0928 87.4752 53.1435 87.1588 53.1435 86.801C53.1435 86.4459 53.0941 86.1335 52.9953 85.8638C52.8965 85.5941 52.751 85.3832 52.5588 85.231C52.3665 85.0788 52.1302 85.0027 51.8499 85.0027C51.5722 85.0027 51.3372 85.0762 51.145 85.223C50.9554 85.3699 50.8099 85.5781 50.7084 85.8478C50.6069 86.1175 50.5562 86.4352 50.5562 86.801ZM56.0232 89.877V83.7251H57.6493V84.8105H57.7214C57.8495 84.45 58.0631 84.1657 58.3622 83.9574C58.6612 83.7491 59.019 83.645 59.4356 83.645C59.8574 83.645 60.2166 83.7505 60.5129 83.9614C60.8093 84.1697 61.0069 84.4527 61.1057 84.8105H61.1698C61.2953 84.458 61.5222 84.1763 61.8506 83.9654C62.1817 83.7518 62.5729 83.645 63.0241 83.645C63.5982 83.645 64.0641 83.8279 64.4219 84.1937C64.7824 84.5568 64.9626 85.0721 64.9626 85.7397V89.877H63.2604V86.0761C63.2604 85.7343 63.1697 85.478 62.9881 85.3071C62.8065 85.1362 62.5796 85.0508 62.3072 85.0508C61.9975 85.0508 61.7559 85.1496 61.5823 85.3472C61.4087 85.5421 61.322 85.7997 61.322 86.1202V89.877H59.6679V86.0401C59.6679 85.7383 59.5811 85.498 59.4075 85.3191C59.2366 85.1402 59.011 85.0508 58.7307 85.0508C58.5411 85.0508 58.3702 85.0988 58.218 85.195C58.0685 85.2884 57.9497 85.4206 57.8615 85.5915C57.7734 85.7597 57.7294 85.9573 57.7294 86.1842V89.877H56.0232ZM69.1139 89.9971C68.4811 89.9971 67.9364 89.8689 67.4798 89.6126C67.0259 89.3536 66.6761 88.9878 66.4305 88.5152C66.1848 88.0399 66.062 87.4779 66.062 86.8291C66.062 86.1963 66.1848 85.6409 66.4305 85.1629C66.6761 84.685 67.0219 84.3125 67.4678 84.0455C67.9164 83.7785 68.4424 83.645 69.0458 83.645C69.4517 83.645 69.8295 83.7104 70.1793 83.8412C70.5317 83.9694 70.8388 84.163 71.1005 84.422C71.3648 84.681 71.5704 85.0067 71.7172 85.3992C71.8641 85.7891 71.9375 86.2456 71.9375 86.769V87.2376H66.7429V86.1802H70.3315C70.3315 85.9346 70.2781 85.717 70.1713 85.5274C70.0645 85.3378 69.9163 85.1896 69.7267 85.0828C69.5398 84.9734 69.3222 84.9186 69.0739 84.9186C68.8149 84.9186 68.5852 84.9787 68.385 85.0988C68.1874 85.2163 68.0325 85.3752 67.9204 85.5755C67.8083 85.773 67.7508 85.9933 67.7482 86.2363V87.2416C67.7482 87.546 67.8042 87.809 67.9164 88.0306C68.0312 88.2522 68.1927 88.4231 68.401 88.5432C68.6093 88.6634 68.8563 88.7235 69.142 88.7235C69.3315 88.7235 69.5051 88.6968 69.6626 88.6434C69.8202 88.59 69.955 88.5099 70.0671 88.4031C70.1793 88.2963 70.2647 88.1654 70.3235 88.0106L71.9015 88.1147C71.8214 88.4939 71.6572 88.8249 71.4089 89.108C71.1632 89.3883 70.8455 89.6073 70.4556 89.7648C70.0685 89.9197 69.6212 89.9971 69.1139 89.9971ZM74.7571 86.3204V89.877H73.051V83.7251H74.677V84.8105H74.7491C74.8853 84.4527 75.1136 84.1697 75.434 83.9614C75.7544 83.7505 76.1429 83.645 76.5995 83.645C77.0267 83.645 77.3992 83.7384 77.7169 83.9253C78.0347 84.1123 78.2816 84.3793 78.4579 84.7264C78.6341 85.0708 78.7222 85.482 78.7222 85.9599V89.877H77.016V86.2643C77.0187 85.8879 76.9226 85.5941 76.7277 85.3832C76.5327 85.1696 76.2644 85.0628 75.9226 85.0628C75.693 85.0628 75.4901 85.1122 75.3138 85.211C75.1403 85.3098 75.0041 85.454 74.9053 85.6435C74.8092 85.8305 74.7598 86.0561 74.7571 86.3204ZM83.3391 83.7251V85.0067H79.6344V83.7251H83.3391ZM80.4754 82.2512H82.1816V87.9865C82.1816 88.1441 82.2056 88.2669 82.2537 88.355C82.3018 88.4405 82.3685 88.5005 82.454 88.5352C82.5421 88.5699 82.6435 88.5873 82.7584 88.5873C82.8385 88.5873 82.9186 88.5806 82.9987 88.5673C83.0788 88.5513 83.1402 88.5392 83.1829 88.5312L83.4512 89.8009C83.3658 89.8276 83.2456 89.8583 83.0908 89.893C82.9359 89.9304 82.7477 89.9531 82.5261 89.9611C82.1149 89.9771 81.7544 89.9223 81.4447 89.7969C81.1376 89.6714 80.8986 89.4764 80.7278 89.2121C80.5569 88.9478 80.4728 88.614 80.4754 88.2108V82.2512Z" fill="white"/>
<path d="M0.503418 170.612C0.503418 166.719 3.65937 163.563 7.55242 163.563H78.7824C82.6754 163.563 85.8314 166.719 85.8314 170.612V243.569C85.8314 247.462 82.6754 250.618 78.7824 250.618H7.55243C3.65937 250.618 0.503418 247.462 0.503418 243.569V170.612Z" fill="#FE6B36"/>
<path d="M19.3677 204.874H16.46V196.672H19.3917C20.2168 196.672 20.927 196.836 21.5224 197.164C22.1179 197.49 22.5758 197.959 22.8962 198.57C23.2193 199.181 23.3808 199.913 23.3808 200.765C23.3808 201.619 23.2193 202.354 22.8962 202.968C22.5758 203.582 22.1152 204.053 21.5144 204.381C20.9163 204.71 20.2007 204.874 19.3677 204.874ZM18.1942 203.388H19.2956C19.8082 203.388 20.2395 203.297 20.5892 203.116C20.9417 202.932 21.206 202.647 21.3823 202.263C21.5611 201.876 21.6506 201.376 21.6506 200.765C21.6506 200.159 21.5611 199.663 21.3823 199.279C21.206 198.894 20.943 198.611 20.5932 198.43C20.2435 198.248 19.8122 198.158 19.2996 198.158H18.1942V203.388ZM24.6334 204.874V198.722H26.3396V204.874H24.6334ZM25.4905 197.929C25.2368 197.929 25.0192 197.845 24.8377 197.677C24.6588 197.506 24.5693 197.302 24.5693 197.064C24.5693 196.829 24.6588 196.628 24.8377 196.459C25.0192 196.288 25.2368 196.203 25.4905 196.203C25.7442 196.203 25.9604 196.288 26.1393 196.459C26.3209 196.628 26.4117 196.829 26.4117 197.064C26.4117 197.302 26.3209 197.506 26.1393 197.677C25.9604 197.845 25.7442 197.929 25.4905 197.929ZM32.8249 200.476L31.2629 200.573C31.2362 200.439 31.1788 200.319 31.0907 200.212C31.0025 200.103 30.8864 200.016 30.7422 199.952C30.6007 199.885 30.4311 199.852 30.2336 199.852C29.9692 199.852 29.7463 199.908 29.5647 200.02C29.3831 200.129 29.2924 200.276 29.2924 200.46C29.2924 200.607 29.3511 200.731 29.4686 200.833C29.5861 200.934 29.7877 201.016 30.0734 201.077L31.1868 201.302C31.7849 201.424 32.2308 201.622 32.5245 201.894C32.8182 202.167 32.9651 202.524 32.9651 202.968C32.9651 203.371 32.8462 203.725 32.6086 204.029C32.3736 204.333 32.0505 204.571 31.6394 204.742C31.2308 204.91 30.7596 204.994 30.2256 204.994C29.4112 204.994 28.7623 204.825 28.2791 204.486C27.7985 204.144 27.5168 203.679 27.434 203.092L29.1121 203.004C29.1629 203.252 29.2857 203.442 29.4806 203.572C29.6755 203.701 29.9252 203.765 30.2296 203.765C30.5286 203.765 30.7689 203.707 30.9505 203.592C31.1347 203.475 31.2282 203.324 31.2308 203.14C31.2282 202.985 31.1627 202.858 31.0346 202.759C30.9064 202.658 30.7088 202.58 30.4418 202.527L29.3765 202.315C28.7757 202.195 28.3285 201.986 28.0348 201.69C27.7437 201.394 27.5982 201.016 27.5982 200.557C27.5982 200.161 27.705 199.821 27.9186 199.535C28.1349 199.25 28.4379 199.029 28.8278 198.874C29.2203 198.72 29.6795 198.642 30.2055 198.642C30.9825 198.642 31.594 198.806 32.0399 199.135C32.4884 199.463 32.7501 199.91 32.8249 200.476ZM36.819 204.994C36.1888 204.994 35.6468 204.861 35.1929 204.594C34.7417 204.324 34.3945 203.95 34.1516 203.472C33.9113 202.994 33.7911 202.444 33.7911 201.822C33.7911 201.192 33.9126 200.639 34.1556 200.164C34.4012 199.686 34.7497 199.314 35.2009 199.047C35.6522 198.777 36.1888 198.642 36.811 198.642C37.3477 198.642 37.8176 198.74 38.2208 198.934C38.6239 199.129 38.943 199.403 39.178 199.756C39.413 200.108 39.5425 200.522 39.5665 200.997H37.9564C37.911 200.69 37.7909 200.443 37.596 200.256C37.4037 200.067 37.1514 199.972 36.839 199.972C36.5747 199.972 36.3437 200.044 36.1461 200.188C35.9512 200.33 35.799 200.537 35.6895 200.809C35.5801 201.081 35.5253 201.411 35.5253 201.798C35.5253 202.191 35.5787 202.524 35.6855 202.799C35.795 203.074 35.9485 203.284 36.1461 203.428C36.3437 203.572 36.5747 203.645 36.839 203.645C37.0339 203.645 37.2088 203.604 37.3637 203.524C37.5212 203.444 37.6507 203.328 37.7522 203.176C37.8563 203.021 37.9244 202.835 37.9564 202.619H39.5665C39.5398 203.089 39.4116 203.503 39.182 203.861C38.955 204.216 38.6413 204.494 38.2408 204.694C37.8403 204.894 37.3663 204.994 36.819 204.994ZM43.4384 204.994C42.8163 204.994 42.2783 204.862 41.8244 204.598C41.3731 204.331 41.0247 203.96 40.779 203.484C40.5334 203.006 40.4106 202.452 40.4106 201.822C40.4106 201.187 40.5334 200.631 40.779 200.156C41.0247 199.678 41.3731 199.307 41.8244 199.043C42.2783 198.776 42.8163 198.642 43.4384 198.642C44.0606 198.642 44.5972 198.776 45.0485 199.043C45.5024 199.307 45.8522 199.678 46.0978 200.156C46.3435 200.631 46.4663 201.187 46.4663 201.822C46.4663 202.452 46.3435 203.006 46.0978 203.484C45.8522 203.96 45.5024 204.331 45.0485 204.598C44.5972 204.862 44.0606 204.994 43.4384 204.994ZM43.4464 203.673C43.7295 203.673 43.9658 203.592 44.1553 203.432C44.3449 203.269 44.4878 203.048 44.5839 202.767C44.6827 202.487 44.7321 202.168 44.7321 201.81C44.7321 201.452 44.6827 201.133 44.5839 200.853C44.4878 200.573 44.3449 200.351 44.1553 200.188C43.9658 200.025 43.7295 199.944 43.4464 199.944C43.1607 199.944 42.9204 200.025 42.7255 200.188C42.5333 200.351 42.3878 200.573 42.289 200.853C42.1928 201.133 42.1448 201.452 42.1448 201.81C42.1448 202.168 42.1928 202.487 42.289 202.767C42.3878 203.048 42.5333 203.269 42.7255 203.432C42.9204 203.592 43.1607 203.673 43.4464 203.673ZM53.1128 198.722L50.962 204.874H49.0396L46.8888 198.722H48.6911L49.9688 203.124H50.0329L51.3065 198.722H53.1128ZM56.5912 204.994C55.9584 204.994 55.4137 204.866 54.9571 204.61C54.5032 204.351 54.1535 203.985 53.9078 203.512C53.6622 203.037 53.5393 202.475 53.5393 201.826C53.5393 201.193 53.6622 200.638 53.9078 200.16C54.1535 199.682 54.4992 199.31 54.9451 199.043C55.3937 198.776 55.9197 198.642 56.5231 198.642C56.929 198.642 57.3068 198.708 57.6566 198.838C58.009 198.967 58.3161 199.16 58.5778 199.419C58.8421 199.678 59.0477 200.004 59.1946 200.396C59.3414 200.786 59.4148 201.243 59.4148 201.766V202.235H54.2202V201.177H57.8088C57.8088 200.932 57.7554 200.714 57.6486 200.525C57.5418 200.335 57.3936 200.187 57.204 200.08C57.0171 199.97 56.7995 199.916 56.5512 199.916C56.2922 199.916 56.0626 199.976 55.8623 200.096C55.6647 200.213 55.5099 200.372 55.3977 200.573C55.2856 200.77 55.2282 200.99 55.2255 201.233V202.239C55.2255 202.543 55.2816 202.806 55.3937 203.028C55.5085 203.249 55.6701 203.42 55.8783 203.54C56.0866 203.661 56.3336 203.721 56.6193 203.721C56.8088 203.721 56.9824 203.694 57.1399 203.641C57.2975 203.587 57.4323 203.507 57.5445 203.4C57.6566 203.293 57.742 203.163 57.8008 203.008L59.3788 203.112C59.2987 203.491 59.1345 203.822 58.8862 204.105C58.6405 204.385 58.3228 204.604 57.933 204.762C57.5458 204.917 57.0986 204.994 56.5912 204.994ZM60.5283 204.874V198.722H62.1824V199.796H62.2465C62.3586 199.414 62.5468 199.125 62.8112 198.93C63.0755 198.733 63.3799 198.634 63.7243 198.634C63.8098 198.634 63.9019 198.639 64.0007 198.65C64.0995 198.661 64.1863 198.675 64.261 198.694V200.208C64.1809 200.184 64.0701 200.163 63.9286 200.144C63.7871 200.125 63.6576 200.116 63.5401 200.116C63.2891 200.116 63.0648 200.171 62.8673 200.28C62.6723 200.387 62.5175 200.537 62.4027 200.729C62.2905 200.921 62.2344 201.143 62.2344 201.394V204.874H60.5283ZM66.3837 207.181C66.1675 207.181 65.9645 207.164 65.775 207.129C65.5881 207.097 65.4332 207.056 65.3104 207.005L65.6949 205.731C65.8951 205.793 66.0754 205.826 66.2356 205.831C66.3984 205.837 66.5386 205.799 66.6561 205.719C66.7762 205.639 66.8737 205.503 66.9485 205.311L67.0486 205.05L64.8418 198.722H66.6361L67.9097 203.24H67.9738L69.2594 198.722H71.0657L68.6747 205.539C68.5599 205.87 68.4037 206.158 68.2061 206.404C68.0112 206.652 67.7642 206.843 67.4651 206.977C67.1661 207.113 66.8056 207.181 66.3837 207.181ZM40.8681 213.543H39.1139C39.0819 213.316 39.0164 213.115 38.9177 212.939C38.8189 212.76 38.692 212.607 38.5372 212.482C38.3823 212.356 38.2034 212.26 38.0005 212.194C37.8002 212.127 37.5826 212.093 37.3477 212.093C36.9231 212.093 36.5533 212.199 36.2382 212.41C35.9232 212.618 35.6789 212.922 35.5053 213.323C35.3317 213.721 35.245 214.204 35.245 214.773C35.245 215.358 35.3317 215.849 35.5053 216.247C35.6815 216.645 35.9272 216.945 36.2422 217.148C36.5573 217.351 36.9218 217.452 37.3356 217.452C37.5679 217.452 37.7829 217.422 37.9805 217.36C38.1807 217.299 38.3583 217.209 38.5131 217.092C38.668 216.972 38.7962 216.826 38.8976 216.655C39.0018 216.484 39.0739 216.289 39.1139 216.071L40.8681 216.079C40.8228 216.455 40.7093 216.818 40.5277 217.168C40.3488 217.515 40.1072 217.826 39.8028 218.101C39.5011 218.373 39.1406 218.59 38.7214 218.75C38.3049 218.907 37.8336 218.986 37.3076 218.986C36.576 218.986 35.9218 218.821 35.3451 218.49C34.771 218.159 34.3171 217.679 33.9834 217.052C33.6523 216.424 33.4867 215.665 33.4867 214.773C33.4867 213.878 33.6549 213.117 33.9914 212.49C34.3278 211.862 34.7844 211.385 35.3611 211.056C35.9378 210.725 36.5867 210.559 37.3076 210.559C37.7829 210.559 38.2234 210.626 38.6293 210.76C39.0378 210.893 39.3996 211.088 39.7147 211.344C40.0297 211.598 40.2861 211.909 40.4837 212.278C40.6839 212.646 40.8121 213.068 40.8681 213.543ZM43.8339 218.99C43.4414 218.99 43.0917 218.922 42.7846 218.786C42.4775 218.647 42.2346 218.443 42.0557 218.173C41.8794 217.901 41.7913 217.562 41.7913 217.156C41.7913 216.814 41.8541 216.527 41.9796 216.295C42.1051 216.062 42.2759 215.876 42.4922 215.734C42.7085 215.593 42.9541 215.486 43.2292 215.414C43.5069 215.342 43.7979 215.291 44.1023 215.261C44.4601 215.224 44.7484 215.189 44.9674 215.157C45.1863 215.123 45.3452 215.072 45.444 215.005C45.5428 214.938 45.5922 214.84 45.5922 214.709V214.685C45.5922 214.431 45.5121 214.235 45.3519 214.096C45.1943 213.957 44.9701 213.888 44.679 213.888C44.372 213.888 44.1276 213.956 43.9461 214.092C43.7645 214.225 43.6444 214.394 43.5856 214.597L42.0076 214.468C42.0877 214.095 42.2452 213.772 42.4802 213.499C42.7152 213.224 43.0182 213.013 43.3894 212.866C43.7632 212.717 44.1957 212.642 44.687 212.642C45.0288 212.642 45.3559 212.682 45.6683 212.762C45.9834 212.842 46.2624 212.967 46.5054 213.135C46.751 213.303 46.9446 213.519 47.0861 213.784C47.2276 214.045 47.2984 214.359 47.2984 214.725V218.874H45.6803V218.021H45.6322C45.5334 218.213 45.4013 218.383 45.2357 218.53C45.0702 218.674 44.8713 218.787 44.639 218.87C44.4067 218.95 44.1383 218.99 43.8339 218.99ZM44.3226 217.813C44.5735 217.813 44.7952 217.763 44.9874 217.665C45.1797 217.563 45.3305 217.427 45.44 217.256C45.5495 217.085 45.6042 216.892 45.6042 216.675V216.022C45.5508 216.057 45.4774 216.089 45.3839 216.119C45.2931 216.145 45.1903 216.171 45.0755 216.195C44.9607 216.216 44.8459 216.236 44.7311 216.255C44.6163 216.271 44.5121 216.285 44.4187 216.299C44.2184 216.328 44.0435 216.375 43.894 216.439C43.7445 216.503 43.6283 216.59 43.5456 216.699C43.4628 216.806 43.4214 216.94 43.4214 217.1C43.4214 217.332 43.5055 217.51 43.6737 217.632C43.8446 217.753 44.0609 217.813 44.3226 217.813ZM50.3282 210.672V218.874H48.6221V210.672H50.3282ZM53.4012 210.672V218.874H51.695V210.672H53.4012Z" fill="white"/>
</svg>
