<svg width="55" height="10" viewBox="0 0 55 10" fill="none" xmlns="http://www.w3.org/2000/svg">
<g clip-path="url(#clip0_738_869)">
<path d="M0.963379 1.10487C0.963379 0.536469 1.43088 0.0756836 2.00756 0.0756836H9.10726C9.68395 0.0756836 10.1514 0.536469 10.1514 1.10488V8.10265C10.1514 8.67106 9.68395 9.13184 9.10726 9.13184H2.00756C1.43088 9.13184 0.963379 8.67106 0.963379 8.10265V1.10487Z" fill="#5A19DA"/>
<path fill-rule="evenodd" clip-rule="evenodd" d="M4.17529 1.93468C4.17529 1.6907 4.37595 1.49292 4.62349 1.49292H6.49384C6.74138 1.49292 6.94204 1.6907 6.94204 1.93468V3.77818C6.94204 4.02216 6.74138 4.21994 6.49384 4.21994H4.62349C4.37595 4.21994 4.17529 4.02216 4.17529 3.77818V1.93468ZM5.93075 1.9072C5.76201 1.91005 5.62757 2.04678 5.63046 2.21259C5.63074 2.22765 5.63212 2.24245 5.63456 2.25688L5.11613 2.56965C5.0758 2.55144 5.03078 2.54162 4.98344 2.54243C4.8147 2.54528 4.68026 2.68201 4.68315 2.84782C4.68607 3.0136 4.82521 3.1457 4.99395 3.14285C5.02848 3.14228 5.06158 3.13608 5.09234 3.12519L5.63272 3.45121C5.63098 3.46499 5.63022 3.47907 5.63046 3.49336C5.63338 3.65917 5.77252 3.79127 5.94126 3.78842C6.11002 3.78556 6.24444 3.64883 6.24155 3.48303C6.23865 3.31722 6.09949 3.18512 5.93075 3.18797C5.86626 3.18908 5.80677 3.20971 5.75806 3.24406L5.27349 2.95171C5.28753 2.91635 5.29494 2.87778 5.29424 2.83748C5.29372 2.80817 5.28895 2.77989 5.28052 2.75326L5.7687 2.45872C5.81822 2.49059 5.87764 2.5087 5.94126 2.50762C6.11002 2.50476 6.24444 2.36806 6.24155 2.20225C6.23865 2.03644 6.09949 1.90434 5.93075 1.9072Z" fill="white"/>
<path fill-rule="evenodd" clip-rule="evenodd" d="M2.41992 5.39806C2.41992 5.1541 2.62059 4.9563 2.86812 4.9563H4.73848C4.98599 4.9563 5.18667 5.1541 5.18667 5.39806V7.24156C5.18667 7.48555 4.98599 7.68332 4.73848 7.68332H2.86812C2.62059 7.68332 2.41992 7.48555 2.41992 7.24156V5.39806ZM4.50156 6.14567H3.98058V5.63098C3.98058 5.53424 3.90208 5.45683 3.80329 5.45683C3.79099 5.45683 3.77894 5.45809 3.76732 5.46047C3.68696 5.47699 3.62602 5.54759 3.62602 5.63098V6.14567H3.10502C3.05484 6.14567 3.00932 6.16654 2.97698 6.19983C2.9465 6.23089 2.92774 6.2732 2.92774 6.31982C2.92774 6.41657 3.00623 6.49396 3.10502 6.49396H3.62602V7.00866C3.62602 7.1054 3.7045 7.18279 3.80329 7.18279C3.81559 7.18279 3.82766 7.18154 3.83926 7.17915C3.91964 7.16264 3.98058 7.09206 3.98058 7.00866V6.49396H4.50156C4.55174 6.49396 4.59726 6.47311 4.6296 6.43982C4.66008 6.40877 4.67885 6.36644 4.67885 6.31982C4.67885 6.26163 4.64963 6.21016 4.60487 6.1789C4.57583 6.15803 4.54017 6.14567 4.50156 6.14567Z" fill="white"/>
<path d="M6.96729 5.74902H7.28613V5.99939C7.28613 6.07981 7.35037 6.14507 7.43008 6.14507H7.66686V6.90823H6.96729V5.74902Z" fill="white"/>
<path fill-rule="evenodd" clip-rule="evenodd" d="M6.38179 4.9563C6.13425 4.9563 5.93359 5.1541 5.93359 5.39806V7.24156C5.93359 7.48555 6.13425 7.68332 6.38179 7.68332H8.25214C8.49968 7.68332 8.70034 7.48555 8.70034 7.24156V5.39806C8.70034 5.1541 8.49968 4.9563 8.25214 4.9563H6.38179ZM7.96895 5.96076L7.46806 5.45378C7.44785 5.43397 7.42048 5.42232 7.39312 5.42232H6.84701C6.73072 5.42232 6.6364 5.51664 6.63404 5.63457C6.63402 5.63557 6.63404 5.63657 6.63404 5.63758V5.63909V7.01782V7.01933V7.02079C6.63404 7.0213 6.63404 7.02183 6.63404 7.02234C6.63644 7.13917 6.73074 7.23459 6.84701 7.23459H7.78693C7.90321 7.23459 7.99753 7.14027 7.99989 7.02234C7.99989 7.02167 7.99991 7.021 7.99989 7.02032V7.01949V7.01782V6.03884C7.99989 6.00853 7.98798 5.98173 7.96895 5.96076Z" fill="white"/>
<path d="M19.3142 8.29998C19.209 8.29998 19.1238 8.21605 19.1238 8.11254V3.21357C19.1238 3.11003 19.209 3.02612 19.3142 3.02612H20.6435C20.7487 3.02612 20.8339 3.11003 20.8339 3.21357V8.11254C20.8339 8.21605 20.7487 8.29998 20.6435 8.29998H19.3142Z" fill="#5A19DA"/>
<path d="M19.9843 2.41131C19.7419 2.41131 19.5343 2.33291 19.3618 2.1761C19.1893 2.01931 19.103 1.8299 19.103 1.60787C19.103 1.38812 19.1893 1.19986 19.3618 1.04306C19.5343 0.88626 19.7407 0.807861 19.9808 0.807861C20.2233 0.807861 20.4302 0.88626 20.6016 1.04306C20.7729 1.19986 20.8586 1.38812 20.8586 1.60787C20.8586 1.8299 20.7729 2.01931 20.6016 2.1761C20.4302 2.33291 20.2245 2.41131 19.9843 2.41131Z" fill="#5A19DA"/>
<path fill-rule="evenodd" clip-rule="evenodd" d="M12.9382 8.29988C12.8331 8.29988 12.7478 8.21595 12.7478 8.11244V1.45551C12.7478 1.35199 12.8331 1.26807 12.9382 1.26807H15.7064C16.2427 1.26807 16.706 1.3705 17.0966 1.57536C17.4871 1.78023 17.7884 2.06522 18.0006 2.4303C18.2128 2.79541 18.3188 3.21943 18.3188 3.70242C18.3188 4.18769 18.211 4.61172 17.9953 4.97453C17.7797 5.33733 17.4725 5.61831 17.0738 5.81745C16.6752 6.0166 16.2019 6.11616 15.654 6.11616H14.4789V8.11244C14.4789 8.21595 14.3937 8.29988 14.2885 8.29988H12.9382ZM14.4789 4.77711H15.3322C15.5933 4.77711 15.8119 4.73246 15.988 4.6432C16.164 4.55393 16.2975 4.42861 16.3884 4.26723C16.4793 4.10585 16.5248 3.91758 16.5248 3.70242C16.5248 3.48495 16.4793 3.2967 16.3884 3.13761C16.2975 2.97852 16.1634 2.85549 15.9862 2.76851C15.809 2.68151 15.591 2.63803 15.3322 2.63803H14.4789V4.77711Z" fill="#5A19DA"/>
<path d="M24.0864 4.76347L23.2542 3.12954C23.2219 3.06615 23.1562 3.02612 23.0841 3.02612H21.7899C21.6449 3.02612 21.5533 3.17941 21.6234 3.30434L22.9498 5.66304L21.5566 8.01821C21.4827 8.14317 21.5744 8.29998 21.7212 8.29998H23.0112C23.0811 8.29998 23.1454 8.26224 23.1785 8.20168L24.0864 6.54889L25.0181 8.20343C25.0517 8.26301 25.1154 8.29998 25.1847 8.29998H26.4519C26.5987 8.29998 26.6902 8.14333 26.6165 8.01837L25.2265 5.66304L26.5679 3.30517C26.639 3.18022 26.5474 3.02612 26.402 3.02612H25.1182C25.0473 3.02612 24.982 3.06508 24.9494 3.12718L24.0864 4.76347Z" fill="#5A19DA"/>
<path d="M27.6552 8.29998C27.5499 8.29998 27.4648 8.21605 27.4648 8.11254V3.21357C27.4648 3.11003 27.5499 3.02612 27.6552 3.02612H28.9845C29.0895 3.02612 29.1748 3.11003 29.1748 3.21357V8.11254C29.1748 8.21605 29.0895 8.29998 28.9845 8.29998H27.6552Z" fill="#5A19DA"/>
<path d="M28.3253 2.41131C28.0828 2.41131 27.8753 2.33291 27.7027 2.1761C27.5301 2.01931 27.4438 1.8299 27.4438 1.60787C27.4438 1.38812 27.5301 1.19986 27.7027 1.04306C27.8753 0.88626 28.0816 0.807861 28.3217 0.807861C28.5642 0.807861 28.7711 0.88626 28.9425 1.04306C29.1139 1.19986 29.1996 1.38812 29.1996 1.60787C29.1996 1.8299 29.1139 2.01931 28.9425 2.1761C28.7711 2.33291 28.5654 2.41131 28.3253 2.41131Z" fill="#5A19DA"/>
<path fill-rule="evenodd" clip-rule="evenodd" d="M31.2724 8.07171C31.6793 8.29032 32.1637 8.39962 32.7255 8.39962C33.1941 8.39962 33.6068 8.32922 33.9635 8.18846C34.3203 8.04767 34.6087 7.84968 34.829 7.59445C35.0028 7.39313 35.1284 7.16367 35.2057 6.90608C35.2389 6.79574 35.152 6.69017 35.0351 6.68685L33.8233 6.65239C33.742 6.65009 33.6701 6.70035 33.6294 6.76981C33.591 6.83513 33.5439 6.89313 33.4879 6.94381C33.3993 7.02391 33.2932 7.08459 33.1696 7.12579C33.0461 7.16698 32.9085 7.18759 32.7569 7.18759C32.5378 7.18759 32.349 7.14294 32.1904 7.05368C32.0318 6.96442 31.9094 6.83909 31.8231 6.67771C31.7368 6.51633 31.6939 6.32806 31.6939 6.1129V6.06827H35.0845C35.1897 6.06827 35.2748 5.98434 35.2748 5.88083V5.64938C35.2748 5.21676 35.2107 4.83277 35.0825 4.49744C34.9542 4.16211 34.7749 3.87999 34.544 3.65108C34.3133 3.42218 34.0392 3.24936 33.7222 3.13262C33.405 3.01589 33.0553 2.95752 32.673 2.95752C32.1321 2.95752 31.6623 3.07139 31.2636 3.29915C30.8649 3.5269 30.5559 3.84508 30.3368 4.25367C30.1177 4.66224 30.0081 5.13893 30.0081 5.68372C30.0081 6.24453 30.1171 6.72807 30.335 7.13438C30.5531 7.54067 30.8655 7.85312 31.2724 8.07171ZM31.6949 5.09316C31.7033 4.92336 31.7496 4.77056 31.8337 4.63478C31.9222 4.49171 32.0424 4.37841 32.1938 4.29486C32.3454 4.21131 32.5168 4.16953 32.7079 4.16953C32.8969 4.16953 33.0641 4.20902 33.2099 4.28799C33.3555 4.36697 33.4704 4.47628 33.5542 4.6159C33.6381 4.75552 33.6813 4.91461 33.6837 5.09316H31.6949Z" fill="#5A19DA"/>
<path fill-rule="evenodd" clip-rule="evenodd" d="M36.2983 8.29988C36.193 8.29988 36.1079 8.21595 36.1079 8.11244V1.45551C36.1079 1.35199 36.193 1.26807 36.2983 1.26807H39.0944C39.6307 1.26807 40.0801 1.34246 40.4427 1.49124C40.8052 1.64003 41.0779 1.84833 41.261 2.11613C41.444 2.38396 41.5355 2.69411 41.5355 3.04662C41.5355 3.31444 41.4783 3.55307 41.3641 3.76251C41.2498 3.97196 41.0924 4.14534 40.8919 4.28268C40.6916 4.42002 40.4595 4.51616 40.196 4.57108V4.63977C40.4852 4.65349 40.7527 4.73018 40.9986 4.8698C41.2446 5.00944 41.4422 5.20344 41.5914 5.45179C41.7406 5.70015 41.8153 5.99371 41.8153 6.33249C41.8153 6.71017 41.7172 7.04721 41.5215 7.34365C41.3257 7.64008 41.0423 7.87355 40.6716 8.04408C40.3009 8.21461 39.851 8.29988 39.3217 8.29988H36.2983ZM37.8389 6.92992H38.9091C39.2844 6.92992 39.5612 6.86009 39.7396 6.72046C39.918 6.58084 40.0072 6.38627 40.0072 6.13677C40.0072 5.95595 39.9641 5.79973 39.8778 5.6681C39.7915 5.53647 39.6691 5.43463 39.5105 5.36251C39.3521 5.29042 39.1619 5.25435 38.9406 5.25435H37.8389V6.92992ZM37.8389 4.15907H38.7972C38.986 4.15907 39.154 4.12818 39.3008 4.06636C39.4476 4.00456 39.5624 3.9153 39.6453 3.79855C39.728 3.68183 39.7694 3.54104 39.7694 3.37624C39.7694 3.14047 39.6843 2.95507 39.5141 2.82001C39.3439 2.68496 39.1142 2.61743 38.8252 2.61743H37.8389V4.15907Z" fill="#5A19DA"/>
<path d="M42.6662 3.02622C42.5611 3.02622 42.4758 3.11014 42.4758 3.21366V8.11263C42.4758 8.21614 42.5611 8.30007 42.6662 8.30007H43.9955C44.1007 8.30007 44.186 8.21614 44.186 8.11263V5.43653C44.186 5.22594 44.2319 5.04225 44.324 4.88545C44.4161 4.72866 44.5431 4.6062 44.7053 4.51806C44.8673 4.42994 45.0497 4.38588 45.2526 4.38588C45.3551 4.38588 45.4723 4.39389 45.604 4.40992C45.6247 4.41244 45.6449 4.41512 45.6645 4.41791C45.7937 4.43652 45.924 4.34151 45.924 4.21295V3.15678C45.924 3.07335 45.868 2.99887 45.7847 2.98387C45.754 2.97832 45.7222 2.97355 45.6897 2.96956C45.6058 2.95926 45.5241 2.9541 45.445 2.9541C45.1512 2.9541 44.8935 3.03937 44.672 3.2099C44.4505 3.38043 44.2909 3.63967 44.193 3.98759H44.1369V3.21366C44.1369 3.11014 44.0518 3.02622 43.9465 3.02622H42.6662Z" fill="#5A19DA"/>
<path d="M46.8959 8.29998C46.7909 8.29998 46.7056 8.21605 46.7056 8.11254V3.21357C46.7056 3.11003 46.7909 3.02612 46.8959 3.02612H48.2254C48.3305 3.02612 48.4157 3.11003 48.4157 3.21357V8.11254C48.4157 8.21605 48.3305 8.29998 48.2254 8.29998H46.8959Z" fill="#5A19DA"/>
<path d="M47.5658 2.41131C47.3233 2.41131 47.1158 2.33291 46.9434 2.1761C46.7709 2.01931 46.6846 1.8299 46.6846 1.60787C46.6846 1.38812 46.7709 1.19986 46.9434 1.04306C47.1158 0.88626 47.3221 0.807861 47.5624 0.807861C47.8049 0.807861 48.0116 0.88626 48.183 1.04306C48.3544 1.19986 48.4401 1.38812 48.4401 1.60787C48.4401 1.8299 48.3544 2.01931 48.183 2.1761C48.0116 2.33291 47.8059 2.41131 47.5658 2.41131Z" fill="#5A19DA"/>
<path d="M51.6674 4.76347L50.8353 3.12954C50.803 3.06615 50.737 3.02612 50.6651 3.02612H49.371C49.226 3.02612 49.1341 3.17941 49.2044 3.30434L50.5307 5.66304L49.1377 8.01821C49.0638 8.14317 49.1553 8.29998 49.3023 8.29998H50.5922C50.6621 8.29998 50.7263 8.26224 50.7596 8.20168L51.6674 6.54889L52.5992 8.20343C52.6328 8.26301 52.6965 8.29998 52.7658 8.29998H54.033C54.1798 8.29998 54.2713 8.14333 54.1976 8.01837L52.8074 5.66304L54.149 3.30517C54.2201 3.18022 54.1282 3.02612 53.9828 3.02612H52.6993C52.6282 3.02612 52.5631 3.06508 52.5303 3.12718L51.6674 4.76347Z" fill="#5A19DA"/>
</g>
<defs>
<clipPath id="clip0_738_869">
<rect width="53.3307" height="9.05616" fill="white" transform="translate(0.963379 0.0756836)"/>
</clipPath>
</defs>
</svg>
